<?xml version="1.0" encoding="utf-8"?>
<svg xmlns="http://www.w3.org/2000/svg" viewBox="0 0 500 500">
  <g style="" transform="matrix(3.935629, 0, 0, 3.753205, -733.909729, -688.292969)">
    <g style="" transform="matrix(0.28522, 0, 0, 0.28522, 176.982773, 176.983826)" id="object-0">
      <path d="M476.52,388.39l-38.41-32.61a6.36,6.36,0,0,0-6.22-1.17l-44.27,15.45-36.37-30.88a6.33,6.33,0,0,0,.49-2.41V226.38s0,0,0-.08c0-.22,0-.44,0-.66a.41.41,0,0,1,0-.11,6.06,6.06,0,0,0-.15-.74l0-.1a3.84,3.84,0,0,0-.2-.6l-.07-.18c-.08-.19-.17-.37-.26-.55l-.06-.12A6.62,6.62,0,0,0,350,222l-.09-.09c-.15-.15-.31-.3-.48-.44l-.1-.08a6,6,0,0,0-1.23-.78l-85.73-41V132.78L303,109.56a6.39,6.39,0,0,0,3.2-5.54V53.92A6.35,6.35,0,0,0,303,48.39L259.16,23.33a6.36,6.36,0,0,0-6.32,0L209,48.39a6.35,6.35,0,0,0-3.21,5.53V104a6.38,6.38,0,0,0,3.21,5.54l40.6,23.22v46.89l-85.74,41a6.56,6.56,0,0,0-1.23.78l-.09.08c-.17.14-.33.29-.48.44L162,222a6.62,6.62,0,0,0-.9,1.22.75.75,0,0,1-.07.12,5.45,5.45,0,0,0-.25.55l-.08.18c-.07.19-.14.39-.2.6l0,.1a6,6,0,0,0-.14.74.41.41,0,0,0,0,.11c0,.22,0,.44,0,.66V336.77a6.32,6.32,0,0,0,.48,2.41l-36.36,30.88L80.12,354.61a6.38,6.38,0,0,0-6.23,1.17L35.48,388.39a6.38,6.38,0,0,0-2.14,6l9.31,49.25a6.39,6.39,0,0,0,4.16,4.84l47.71,16.64a6.43,6.43,0,0,0,6.23-1.16l38.4-32.61a6.35,6.35,0,0,0,2.14-6l-8.61-45.61,38.65-32.81.28-.27L253,390.28a6.36,6.36,0,0,0,6,0l81.37-43.62.28.27,38.65,32.81-8.61,45.61a6.35,6.35,0,0,0,2.14,6L411.26,464a6.37,6.37,0,0,0,4.12,1.51,6.3,6.3,0,0,0,2.1-.35l47.71-16.64a6.42,6.42,0,0,0,4.17-4.84l9.3-49.25A6.38,6.38,0,0,0,476.52,388.39ZM256,190.75l74.86,35.77L256,264l-74.86-37.51Zm-83,46,76.61,38.38V374L173,333Zm89.36,38.38L339,236.71V333L262.38,374ZM218.57,57.62,256,36.21l37.43,21.41v42.71L256,121.73l-37.43-21.41ZM95.28,451.92,54.49,437.69l-7.93-42,32.8-27.85,40.79,14.23,7.93,42Zm362.23-14.23-40.78,14.23-32.81-27.85,7.94-42,40.78-14.23,32.8,27.85Z" style="fill: #000000; fill-opacity: 1;"/>
      <path d="M344.53,455.36A191.16,191.16,0,0,1,256,476.76a193.69,193.69,0,0,1-88.93-21.61,6.38,6.38,0,1,0-5.88,11.32,206.63,206.63,0,0,0,189.19.23,6.38,6.38,0,1,0-5.85-11.34Z" style="fill: #000000; fill-opacity: 1;"/>
      <path d="M351.92,122.23c59.17,33.89,95.93,96.94,95.93,164.56a189,189,0,0,1-2.69,31.83,6.39,6.39,0,0,0,5.22,7.36,6.56,6.56,0,0,0,1.08.09,6.37,6.37,0,0,0,6.27-5.31,202.91,202.91,0,0,0,2.87-34c0-72.18-39.22-139.47-102.35-175.63a6.38,6.38,0,0,0-6.33,11.07Z" style="fill: #000000; fill-opacity: 1;"/>
      <path d="M59.82,321.49a7.26,7.26,0,0,0,.93-.06,6.39,6.39,0,0,0,5.39-7.23,189.7,189.7,0,0,1-2-27.41c0-66.78,34.41-127.44,92-162.28a6.37,6.37,0,1,0-6.6-10.9C88.12,150.76,51.41,215.5,51.41,286.79A203.57,203.57,0,0,0,53.52,316,6.37,6.37,0,0,0,59.82,321.49Z" style="fill: #000000; fill-opacity: 1;"/>
    </g>
  </g>
</svg>